# xmcd
#
# Track frame offsets:
#	183
#	17958
#	36708
#	57183
#	76758
#	99558
#	111933
#	132033
#	147108
#	163908
#	189408
#	206583
#
# Disc length: 3028 seconds
#
# Revision: 0
# Processed by: cddbd v1.5.2PL0 Copyright (c) Steve Scherf et al.
# Submitted via: dBpowerAMP V4.0
#
DISCID=a60bd20c
DTITLE=Rocket 88's - Lights Out
DYEAR=1990
DGENRE=Blues
TTITLE0=Greasy
TTITLE1=Dust My Blues
TTITLE2=Chromatic On The Asiatic
TTITLE3=Lights Out
TTITLE4=Nine Below Zero
TTITLE5=Harp Attack
TTITLE6=Runnin' Shoes
TTITLE7=I Ain't Mad At You
TTITLE8=My Man Stands Out
TTITLE9=Tribute To Walker Horton
TTITLE10=Swing Shift
TTITLE11=Lowdown In The Bayou
EXTD=
EXTT0=
EXTT1=
EXTT2=
EXTT3=
EXTT4=
EXTT5=
EXTT6=
EXTT7=
EXTT8=
EXTT9=
EXTT10=
EXTT11=
PLAYORDER=
